<?xml version="1.0" encoding="UTF-8"?>
<!DOCTYPE svg PUBLIC "-//W3C//DTD SVG 1.1//EN" "http://www.w3.org/Graphics/SVG/1.1/DTD/svg11.dtd">
<!-- Creator: CorelDRAW X7 -->
<svg xmlns="http://www.w3.org/2000/svg" xml:space="preserve" width="0.849476in" height="1.00001in" version="1.1" style="shape-rendering:geometricPrecision; text-rendering:geometricPrecision; image-rendering:optimizeQuality; fill-rule:evenodd; clip-rule:evenodd"
viewBox="0 0 849 1000"
 xmlns:xlink="http://www.w3.org/1999/xlink">
 <defs>
  <style type="text/css">
   <![CDATA[
    .fil0 {fill:#0048A6;fill-rule:nonzero}
    .fil1 {fill:#0084CE;fill-rule:nonzero}
   ]]>
  </style>
 </defs>
 <g id="Layer_x0020_1">
  <metadata id="CorelCorpID_0Corel-Layer"/>
  <path class="fil0" d="M150 0l552 0c7,0 13,3 17,9l126 154c3,4 4,9 4,13l0 0 0 759c0,18 -7,34 -19,46 -11,12 -28,19 -46,19l-634 0c-18,0 -34,-7 -46,-19l0 0c-12,-12 -19,-28 -19,-46l0 -148c0,-11 9,-20 20,-20l1 0 444 0 0 -214 -445 0c-11,0 -20,-9 -20,-20l0 -1 0 -467c0,-18 7,-34 19,-46l1 -1c12,-11 28,-18 45,-18zm543 41l-543 0c-6,0 -12,2 -16,6l-1 1c-4,4 -7,11 -7,17l0 448 426 0c10,0 19,3 26,10l2 1c7,7 11,17 11,28l0 216c0,11 -4,21 -11,28l0 0 -1 0c-7,7 -17,12 -27,12l-426 0 0 127c0,6 3,13 7,17l0 0 0 0c4,4 10,7 17,7l634 0c7,0 13,-3 17,-7 5,-4 8,-11 8,-17l0 -752 -116 -142z"/>
  <path class="fil0" d="M689 0l1 0 12 0c7,0 13,3 17,9l126 154c3,4 4,9 4,13l0 0 0 10c0,11 -9,20 -20,20l-1 0 -136 0c-6,0 -12,-3 -16,-7l-1 0 0 -1 0 0 -1 0c-3,-5 -5,-10 -5,-16l0 -162c0,-11 9,-20 20,-20zm105 165l-84 -103 0 103 84 0z"/>
  <path class="fil1" d="M40 513l512 0c10,0 20,4 27,11l0 0 1 0c7,7 11,17 11,28l0 216c0,11 -4,21 -11,28l-1 0 0 0c-7,7 -17,12 -27,12l-512 0c-11,0 -21,-5 -28,-12l0 0c-8,-7 -12,-17 -12,-28l0 -216c0,-11 4,-21 12,-28l0 0c7,-7 17,-11 28,-11zm510 40l-509 0 0 214 509 0 0 -214z"/>
  <path class="fil0" d="M229 390c-11,0 -20,-9 -20,-21 0,-11 9,-20 20,-20l323 0c11,0 20,9 20,20 0,12 -9,21 -20,21l-323 0z"/>
  <path class="fil0" d="M229 308c-11,0 -20,-9 -20,-20 0,-11 9,-21 20,-21l323 0c11,0 20,10 20,21 0,11 -9,20 -20,20l-323 0z"/>
  <path class="fil0" d="M500 227c-12,0 -21,-9 -21,-21 0,-11 9,-20 21,-20l52 0c11,0 20,9 20,20 0,12 -9,21 -20,21l-52 0z"/>
  <path class="fil0" d="M230 227c-12,0 -21,-9 -21,-21 0,-11 9,-20 21,-20l197 0c11,0 20,9 20,20 0,12 -9,21 -20,21l-197 0z"/>
  <polygon class="fil1" points="473,699 473,594 440,594 440,726 522,726 522,699 "/>
  <polygon class="fil1" points="359,670 325,594 291,594 291,726 323,726 323,660 349,727 368,727 394,660 394,726 426,726 426,594 393,594 "/>
  <polygon class="fil1" points="181,621 213,621 213,727 246,727 246,621 278,621 278,594 181,594 "/>
  <polygon class="fil1" points="135,646 101,646 101,594 69,594 69,726 101,726 101,673 135,673 135,726 167,726 167,594 135,594 "/>
 </g>
</svg>
