<svg xmlns="http://www.w3.org/2000/svg" height="1200" width="1600" version="1.1" xmlns:xlink="http://www.w3.org/1999/xlink" xmlns:svgjs="http://svgjs.com/svgjs"><rect fill="#ffffff" width="1600" height="1200"></rect><g><path d="M570.1 672.6V763.5C570.1 776.5 559.6 787 546.6 787H531.3C518.3 787 507.8 797.5 507.8 810.5V846.1C507.8 859.1 518.3 869.6 531.3 869.6H900.7C913.7 869.6 924.2 880.1 924.2 893.1V922.8C924.2 935.8 934.7 946.3 947.7 946.3H966.5C979.5 946.3 990 935.8 990 922.8V857.5C990 844.5 1000.5 834 1013.5 834H1316.5C1329.5 834 1340 823.5 1340 810.5V703.9" stroke="#000000" stroke-width="4" stroke-linecap="round" stroke-linejoin="round" opacity="1" fill="none"></path></g><g><path d="M335.01 234.25C301.43 235.1 274.96 262.92 275.72 296.42 276.15 314.68 284.86 331.85 299.32 343.02 308.71 350.2 314.2 361.28 314.29 373.04L317.5 379.81H353.36L358.69 373.04C358.69 361.37 364.1 350.29 373.41 343.19 400.05 322.8 405.21 284.74 384.82 258.02 372.98 242.63 354.46 233.75 335.01 234.25Z" fill="#ffa0c0" opacity="1" stroke-width="4" stroke="#000000"></path><path d="M314.29 373.12V388.6C314.29 400.87 324.18 410.76 336.45 410.76 348.71 410.76 358.61 400.87 358.61 388.6V373.12H314.29Z" fill="#5b2c2f" opacity="1" stroke-width="4" stroke="#000000"></path><path d="M314.29 373.04H358.69" stroke="#000000" stroke-width="4" stroke-linecap="round" stroke-linejoin="round" opacity="1" fill="none"></path><path d="M314.29 385.3H358.61" stroke="#000000" stroke-width="4" stroke-linecap="round" stroke-linejoin="round" opacity="1" fill="none"></path><path d="M329.01 373.04V355.36C329.01 343.52 324.35 332.11 315.98 323.73 309.64 317.39 306.17 308.85 306.17 299.88 306.17 293.54 311.33 288.47 317.59 288.47 323.93 288.47 329.01 293.62 329.01 299.88V306.48C329.01 310.54 332.3 313.84 336.36 313.84 340.42 313.84 343.72 310.54 343.72 306.48V299.88C343.72 293.54 348.88 288.47 355.14 288.47H355.31C361.65 288.47 366.73 293.62 366.73 299.88 366.73 308.85 363.17 317.47 356.83 323.82 348.46 332.28 343.72 343.61 343.72 355.53L343.81 373.12" stroke="#000000" stroke-width="4" stroke-linecap="round" stroke-linejoin="round" opacity="1" fill="none"></path></g><g><path d="M707.21 418.08L645.1 398.65V367.99H624.06L515.35 464.97 624.06 574.38H645.1V543.72L707.21 524.29V418.08Z" fill="#5b2c2f" opacity="1" stroke-width="4" stroke="#000000"></path><path d="M652.21 400.85L645.1 398.65V543.72L669.44 536.11 652.21 400.85Z" fill="#5b2c2f00" opacity="0" stroke-width="4" stroke="#ffffff00"></path><path d="M581.98 553.34H474.77V626.48H581.98V553.34Z" fill="#e9eef3" opacity="1" stroke-width="4" stroke="#000000"></path><path d="M552.92 553.34H445.72V626.48H552.92V553.34Z" fill="#5b2c2f" opacity="1" stroke-width="4" stroke="#000000"></path><path d="M604.02 612.45H709.22V681.58H604.02L538.69 650.52 604.02 612.45Z" fill="#5b2c2f" opacity="1" stroke-width="4" stroke="#000000"></path><path d="M604.02 612.45H354.55V681.58H604.02V612.45Z" fill="#ff3269" opacity="1" stroke-width="4" stroke="#000000"></path><path d="M624.06 367.99H374.58V574.38H624.06V367.99Z" fill="#ff3269" opacity="1" stroke-width="4" stroke="#000000"></path><path d="M594 398.05H404.64V544.32H594V398.05Z" fill="#e9eef3" opacity="1" stroke-width="4" stroke="#000000"></path><path d="M588.99 627.48H502.83V645.51H588.99V627.48Z" fill="#000000" opacity="1" stroke-width="4" stroke="#000000"></path><path d="M645.1 398.65V543.72" stroke="#000000" stroke-width="4" stroke-linecap="round" stroke-linejoin="round" opacity="1" fill="none"></path><path d="M431.69 427.1H499.82" stroke="#000000" stroke-width="4" stroke-linecap="round" stroke-linejoin="round" opacity="1" fill="none"></path><path d="M431.69 447.14H463.75" stroke="#000000" stroke-width="4" stroke-linecap="round" stroke-linejoin="round" opacity="1" fill="none"></path><path d="M431.69 477.2H481.79" stroke="#000000" stroke-width="4" stroke-linecap="round" stroke-linejoin="round" opacity="1" fill="none"></path></g><g><path d="M1415.57 248.64L1457.78 670.72C1461.03 703.28 1431.09 729.73 1390.7 729.84L781.22 731.43C740.98 731.53 705.76 705.25 702.51 672.69L660.3 250.61C657.04 218.05 686.99 191.6 727.23 191.5L1336.7 189.91C1376.94 189.8 1412.31 216.08 1415.57 248.64Z" fill="#ffffff" opacity="1" stroke-width="4" stroke="#000000"></path></g><g><path d="M769.43 281.91H984.56C998.24 281.91 1010.61 293.05 1012.12 306.73 1013.63 320.41 1003.72 331.56 990.04 331.56H774.91C761.23 331.56 748.86 320.41 747.34 306.73 745.83 293.05 755.75 281.91 769.43 281.91Z" fill="#ffa0c0" opacity="1" stroke-width="4" stroke="#000000"></path><path d="M780.76 384.51H906.53C920.21 384.51 932.58 395.65 934.09 409.33 935.6 423.01 925.69 434.16 912.01 434.16H786.24C772.56 434.16 760.19 423.01 758.68 409.33 757.17 395.65 767.08 384.51 780.76 384.51Z" fill="#f0dbe2" opacity="1" stroke-width="4" stroke="#000000"></path><path d="M989.27 384.51H1028.98C1042.66 384.51 1055.04 395.65 1056.55 409.33 1058.06 423.01 1048.15 434.16 1034.47 434.16H994.75C981.07 434.16 968.7 423.01 967.19 409.33 965.68 395.65 975.59 384.51 989.27 384.51Z" fill="#5b2c2f" opacity="1" stroke-width="4" stroke="#000000"></path><path d="M792.09 487.11H822.98C836.66 487.11 849.03 498.25 850.54 511.93 852.05 525.61 842.14 536.76 828.46 536.76H797.57C783.89 536.76 771.52 525.61 770.01 511.93 768.5 498.25 778.41 487.11 792.09 487.11Z" fill="#f0dbe2" opacity="1" stroke-width="4" stroke="#000000"></path><path d="M905.72 487.11H1091.07C1104.75 487.11 1117.12 498.25 1118.63 511.93 1120.14 525.61 1110.23 536.76 1096.55 536.76H911.21C897.53 536.76 885.15 525.61 883.64 511.93 882.13 498.25 892.04 487.11 905.72 487.11Z" fill="#5b2c2f" opacity="1" stroke-width="4" stroke="#000000"></path><path d="M1173.81 487.11H1332.67C1346.35 487.11 1358.73 498.25 1360.24 511.93 1361.75 525.61 1351.84 536.76 1338.16 536.76H1179.29C1165.61 536.76 1153.24 525.61 1151.73 511.93 1150.22 498.25 1160.13 487.11 1173.81 487.11Z" fill="#ffffff" opacity="1" stroke-width="4" stroke="#000000"></path><path d="M803.42 589.71H902.71C916.39 589.71 928.77 600.85 930.28 614.53 931.79 628.21 921.87 639.36 908.19 639.36H808.9C795.22 639.36 782.85 628.21 781.34 614.53 779.83 600.85 789.74 589.71 803.42 589.71Z" fill="#030303" opacity="1" stroke-width="4" stroke="#000000"></path><path d="M985.45 589.71H1007.52C1021.2 589.71 1033.57 600.85 1035.08 614.53 1036.59 628.21 1026.68 639.36 1013 639.36H990.94C977.26 639.36 964.88 628.21 963.37 614.53 961.86 600.85 971.77 589.71 985.45 589.71Z" fill="#f0dbe2" opacity="1" stroke-width="4" stroke="#000000"></path><path d="M1090.26 589.71H1221.55C1235.23 589.71 1247.6 600.85 1249.11 614.53 1250.62 628.21 1240.71 639.36 1227.03 639.36H1095.74C1082.06 639.36 1069.69 628.21 1068.18 614.53 1066.67 600.85 1076.58 589.71 1090.26 589.71Z" fill="#ffa0c0" opacity="1" stroke-width="4" stroke="#000000"></path></g><g><path d="M709.1 761H894.4V1032H709.1L684.9 906.6 709.1 761Z" fill="#122944" opacity="1" stroke-width="4" stroke="#000000"></path><path d="M709.1 761H605V1032H709.1V761Z" fill="#ff3269" opacity="1" stroke-width="4" stroke="#000000"></path><path d="M688.5 790.3H625.6V817H688.5V790.3Z" fill="#5b2c2f" opacity="1" stroke-width="4" stroke="#000000"></path><path d="M657.6 975.7C660.91 975.7 663.6 973.01 663.6 969.7 663.6 966.39 660.91 963.7 657.6 963.7 654.29 963.7 651.6 966.39 651.6 969.7 651.6 973.01 654.29 975.7 657.6 975.7Z" fill="#1f0c11" opacity="1" stroke-width="4" stroke="#000000"></path><path d="M657.6 999.5C660.91 999.5 663.6 996.81 663.6 993.5 663.6 990.19 660.91 987.5 657.6 987.5 654.29 987.5 651.6 990.19 651.6 993.5 651.6 996.81 654.29 999.5 657.6 999.5Z" fill="#1f0c11" opacity="1" stroke-width="4" stroke="#000000"></path><path d="M672.8 834.9V849.6" stroke="#000000" stroke-width="4" stroke-linecap="round" stroke-linejoin="round" opacity="1" fill="none"></path><path d="M657 834.9V849.6" stroke="#000000" stroke-width="4" stroke-linecap="round" stroke-linejoin="round" opacity="1" fill="none"></path><path d="M641.3 834.9V849.6" stroke="#000000" stroke-width="4" stroke-linecap="round" stroke-linejoin="round" opacity="1" fill="none"></path><path d="M796 953H863.5" stroke="#000000" stroke-width="4" stroke-linecap="round" stroke-linejoin="round" opacity="1" fill="none"></path><path d="M796 975H863.5" stroke="#000000" stroke-width="4" stroke-linecap="round" stroke-linejoin="round" opacity="1" fill="none"></path><path d="M796 997H863.5" stroke="#000000" stroke-width="4" stroke-linecap="round" stroke-linejoin="round" opacity="1" fill="none"></path><path d="M657.6 946.3C666.27 946.3 673.3 939.27 673.3 930.6 673.3 921.93 666.27 914.9 657.6 914.9 648.93 914.9 641.9 921.93 641.9 930.6 641.9 939.27 648.93 946.3 657.6 946.3Z" fill="#5b2c2f" opacity="1" stroke-width="4" stroke="#000000"></path></g><g><path d="M1399.07 775.48L1411.81 788.22C1416.42 792.91 1424.05 792.91 1428.74 788.3 1433.18 783.69 1433.1 776.4 1428.57 771.88L1415.67 758.98C1414.58 757.89 1414.58 756.21 1415.67 755.12 1416 754.79 1416.42 754.53 1416.84 754.45 1434.52 749.17 1453.12 759.23 1458.4 776.91 1460.66 784.62 1460.16 792.83 1456.89 800.12L1502.64 845.95C1507.34 850.56 1507.34 858.19 1502.73 862.88 1498.12 867.32 1490.83 867.24 1486.3 862.71L1440.3 816.71C1423.54 824.42 1403.77 817.05 1396.06 800.29 1392.62 792.83 1392.04 784.37 1394.47 776.49 1394.88 775.06 1396.48 774.23 1397.9 774.65 1398.32 774.9 1398.74 775.15 1399.07 775.48Z" fill="#ff3269" opacity="1" stroke-width="4" stroke="#000000"></path></g><g><path d="M446.64 1028.58C444.01 1023.58 441.47 1018.83 439.09 1013.92 435.7 1006.71 433.24 1001.2 431.12 996.2L431.04 996.03H431.12C434.43 994.84 443.59 991.96 456.39 991.96 460.88 991.96 465.29 992.3 469.53 993.06H469.62L474.87 1015.27 446.89 1029.18 446.64 1028.58Z" fill="#525252" opacity="1" stroke-width="4" stroke="#000000"></path><path d="M239.93 556.41C238.4 548.19 236.37 537.59 234.84 529.03 233.57 522.24 232.47 506.81 231.96 503.84 231.96 503.84 284.19 456.11 290.12 458.48 298.18 461.62 303.69 466.2 307.67 472.47 311.4 478.41 313.78 485.87 316.83 494.94L317.59 497.23C318.53 497.32 325.14 498.25 325.82 501.13 326.58 504.18 322.6 509.44 322 510.12 327.26 526.65 327.17 535.64 321.58 543.35 318.19 548.1 311.15 550.99 302.84 550.99 299.28 550.99 295.97 550.48 293.35 549.46L295.55 563.02 239.93 556.41Z" fill="#eab4a4" opacity="1" stroke-width="4" stroke="#000000"></path><path d="M290.12 562.94L281.39 543.78C288.09 547.51 293.35 549.46 293.35 549.46L294.87 558.7 290.12 562.94Z" fill="#eab4a400" opacity="0" stroke-width="4" stroke="#ffffff00"></path><path d="M316.66 520.46C314.46 521.23 309.96 520.72 308.52 517.83" stroke="#000000" stroke-width="4" stroke-linecap="round" stroke-linejoin="round" opacity="1" fill="none"></path><path d="M307.42 502.32C308.73 502.32 309.79 501.26 309.79 499.94 309.79 498.63 308.73 497.57 307.42 497.57 306.11 497.57 305.05 498.63 305.05 499.94 305.05 501.26 306.11 502.32 307.42 502.32Z" fill="#010005" opacity="1" stroke-width="4" stroke="#000000"></path><path d="M275.71 520.46L268.25 515.97" stroke="#000000" stroke-width="4" stroke-linecap="round" stroke-linejoin="round" opacity="1" fill="none"></path><path d="M210.34 487.23C226.21 487.23 239.08 474.36 239.08 458.48 239.08 442.61 226.21 429.74 210.34 429.74 194.47 429.74 181.6 442.61 181.6 458.48 181.6 474.36 194.47 487.23 210.34 487.23Z" fill="#010005" opacity="1" stroke-width="4" stroke="#000000"></path><path d="M303.86 970.17L301.48 964.91V964.83C302.5 955.5 304.03 945.92 305.89 936.34L310.13 923.62 394.75 924.98 392.63 936.51C390.26 944.56 388.56 950.58 388.14 955.41L365.92 999.59 303.86 970.17Z" fill="#eab4a4" opacity="1" stroke-width="4" stroke="#000000"></path><path d="M298.77 1029.09V1028.92C298.6 1023.16 298.6 1017.48 298.6 1011.97 298.6 1005.27 298.86 998.74 299.11 992.47V992.3H299.28C311.83 994.16 323.53 999.5 333.11 1007.9L333.19 1007.98 330.57 1029.09H298.77Z" fill="#525252" opacity="1" stroke-width="4" stroke="#000000"></path><path d="M341.67 1017.56C330.23 1003.49 315.98 995.18 299.28 992.72H299.11V992.13C299.28 989.67 299.36 987.21 299.53 984.92 299.96 978.56 301.23 966.69 301.4 964.91 301.4 964.83 301.48 964.74 301.65 964.74 333.7 966.27 354.82 983.56 359.22 987.46 359.39 987.63 359.65 987.46 359.56 987.29L356.6 968.73C356.09 965.67 356.77 962.54 358.63 960.08 360.41 957.53 363.12 955.84 366.18 955.33 366.77 955.24 367.45 955.16 368.13 955.16H388.22C388.39 955.16 388.48 955.24 388.48 955.41 388.39 956.6 387.88 961.6 387.88 962.96 387.97 983.39 397.04 991.7 405.86 999.67 410.1 1003.49 414.08 1007.13 416.96 1011.97 417.98 1013.66 418.74 1015.44 419.42 1017.31L419.51 1017.56H341.67Z" fill="#cecece" opacity="1" stroke-width="4" stroke="#000000"></path><path d="M305.81 936.51V936.34C312.59 900.64 324.29 866.05 340.66 833.58L345.91 823.32C309.12 823.23 277.57 812.3 263.42 794.66 256.12 785.5 253.67 775.16 256.21 763.88 262.14 738.19 271.72 721.66 271.81 721.57L272.06 721.07 272.32 724.88C276.9 725.39 384.41 738.45 417.64 777.87 439.94 804.33 419.59 860.62 403.31 905.81 399.33 916.92 395.51 927.43 392.71 936.51H305.81Z" fill="#122944" opacity="1" stroke-width="4" stroke="#000000"></path><path d="M395.6 926.59C395.43 926.16 382.79 880.63 328.7 860.28L328.53 860.2 328.62 860.03C332.43 850.79 336.5 841.89 340.74 833.49 342.44 830.19 343.45 828.07 343.96 827.13 343.88 827.05 343.88 827.05 344.73 825.35V825.27L426.97 800.76V800.93C430.61 830.27 415.52 872.15 403.4 905.73 400.68 913.11 398.23 920.06 396.02 926.59L395.85 927.1 395.6 926.59Z" fill="#12294400" opacity="0" stroke-width="4" stroke="#ffffff00"></path><path d="M392.71 984.5L379.15 990.09" stroke="#000000" stroke-width="4" stroke-linecap="round" stroke-linejoin="round" opacity="1" fill="none"></path><path d="M400.43 994.92L388.98 1003.57" stroke="#000000" stroke-width="4" stroke-linecap="round" stroke-linejoin="round" opacity="1" fill="none"></path><path d="M391.95 936.59L305.98 936.42" stroke="#000000" stroke-width="4" stroke-linecap="round" stroke-linejoin="round" opacity="1" fill="none"></path><path d="M421.46 971.35C417.9 961.52 414.67 951.09 412.13 941.85L411.96 934.64 487.08 897.59 490.73 904.54C492.93 916.07 494.2 922.69 495.22 924.98L490.47 975.42 425.78 972.88 421.46 971.35Z" fill="#eab4a4" opacity="1" stroke-width="4" stroke="#000000"></path><path d="M483.94 997.21C475.38 993.99 466.14 992.3 456.47 992.3 443.76 992.3 434.68 995.18 431.38 996.37L431.21 996.45 431.12 996.28C430.02 993.99 423.24 976.95 421.2 971.52L421.12 971.18 421.46 971.1C433.92 965.42 447.32 962.54 461.22 962.54 474.11 962.54 486.11 966.08 485.55 965.76L475.63 951.43C471.4 945.32 472.92 936.93 479.03 932.69 479.62 932.27 495.31 924.72 495.31 924.72 495.31 924.72 497.17 928.88 497.76 929.98 507.01 948.21 518.79 951.6 530.24 954.82 535.75 956.35 540.92 957.87 545.67 960.93 547.19 961.94 548.64 963.13 549.91 964.32L549.82 964.66 483.94 997.21Z" fill="#cecece" opacity="1" stroke-width="4" stroke="#000000"></path><path d="M412.38 942.7C405.94 918.45 401.7 899.03 399.58 881.06 397.63 864.69 397.29 850.53 397.38 832.98L274.1 833.32C257.74 833.32 239.59 830.44 227.38 818.57 218.65 810.09 214.75 798.31 213.22 786.52 211.95 776.77 211.95 766.77 214.41 757.35 217.12 747.1 217.21 738.53 221.45 730.65L229.16 718.69H317.51L321.32 721.49C322.68 721.74 346.85 726.15 374.99 733.78 423.07 746.84 441.97 758.37 449.35 765.75 469.19 786.18 473.94 813.06 480.55 850.19 481.65 856.3 482.76 862.66 484.03 869.27L484.88 873.85C487 885.13 488.95 895.89 490.73 904.88L412.38 942.7Z" fill="#122944" opacity="1" stroke-width="4" stroke="#000000"></path><path d="M403.4 904.8C397.97 876.56 397.46 857.32 397.55 833.58" stroke="#000000" stroke-width="4" stroke-linecap="round" stroke-linejoin="round" opacity="1" fill="none"></path><path d="M512.52 947.7L503.28 958.98" stroke="#000000" stroke-width="4" stroke-linecap="round" stroke-linejoin="round" opacity="1" fill="none"></path><path d="M523.28 953.29L517.26 966.27" stroke="#000000" stroke-width="4" stroke-linecap="round" stroke-linejoin="round" opacity="1" fill="none"></path><path d="M490.3 904.8L413.74 942.19" stroke="#000000" stroke-width="4" stroke-linecap="round" stroke-linejoin="round" opacity="1" fill="none"></path><path d="M403.23 595.07L403.4 591.77C416.71 577.69 431.72 562.09 442.65 554.46 459.19 542.93 488.69 531.74 498.53 531.74 501.66 531.74 503.19 532.67 503.28 534.54 503.36 539.71 496.07 544.2 485.89 550.39 484.88 550.99 483.77 551.66 482.67 552.34 483.94 552.6 485.22 553.78 485.98 555.39 487.17 558.02 486.74 561.07 484.71 563.53 486.83 564.21 488.27 565.48 488.95 567.35 489.71 569.64 489.2 572.35 487.59 574.73 489.12 576.08 489.96 577.95 490.05 580.15 490.13 583.46 488.44 586.68 486.66 588.29 483.94 591 481.32 593.21 476.82 593.21 475.72 593.21 474.53 593.04 473.18 592.78 467.92 599.4 461.31 603.89 454.52 605.33 453.68 606.69 452.4 609.49 450.54 613.39 449.1 616.36 447.4 620.09 445.37 624.16L443.67 625.34 403.23 595.07Z" fill="#eab4a4" opacity="1" stroke-width="4" stroke="#000000"></path><path d="M215.51 752.01C169.39 735.48 168.37 701.99 172.69 674.69 175.07 659.34 181 639.08 188.89 619.15 196.18 600.75 203.98 585.66 209.24 579.9 221.02 566.92 239.42 563.7 241.37 563.45 241.2 562.6 241.03 561.75 240.86 560.82 240.61 559.38 240.27 557.77 239.93 556.07V555.9H294.53L295.8 563.36H297.92C320.14 563.36 339.81 574.22 358.12 596.52L378.56 619.83C379.83 618.31 390.51 605.5 403.4 591.6L403.48 591.51 445.37 624.16C426.88 660.44 408.4 681.56 390.51 686.64 387.46 687.49 384.24 687.91 380.93 687.91 356.17 687.91 331.07 664 328.36 661.38L321.24 721.4H229.25C220.94 733.95 215.77 751.59 215.77 751.84L215.68 752.01H215.51Z" fill="#e79dcd" opacity="1" stroke-width="4" stroke="#000000"></path><path d="M229.25 721.4L218.99 683 218.82 683.08C213.65 685.79 212.37 693.51 210.85 702.41 208.73 715.3 206.02 731.32 189.74 737.51H189.65C196.1 743.11 204.49 748.03 215.51 752.01H215.68L215.77 751.84C215.77 751.59 220.94 733.95 229.25 721.4Z" fill="#e79dcd00" opacity="0" stroke-width="4" stroke="#ffffff00"></path><path d="M290.8 721.4L317.76 651.46 328.36 661.38 321.24 721.4H290.8Z" fill="#e79dcd00" opacity="0" stroke-width="4" stroke="#ffffff00"></path><path d="M229.16 721.32L213.9 664.51" stroke="#000000" stroke-width="4" stroke-linecap="round" stroke-linejoin="round" opacity="1" fill="none"></path><path d="M208.73 702.92L221.53 696.73" stroke="#000000" stroke-width="4" stroke-linecap="round" stroke-linejoin="round" opacity="1" fill="none"></path><path d="M328.28 661.12L314.12 646.88" stroke="#000000" stroke-width="4" stroke-linecap="round" stroke-linejoin="round" opacity="1" fill="none"></path><path d="M378.39 620.42L377.54 631.45" stroke="#000000" stroke-width="4" stroke-linecap="round" stroke-linejoin="round" opacity="1" fill="none"></path><path d="M483.27 551.92C477.33 551.92 467.24 553.95 463.43 556.24" stroke="#000000" stroke-width="4" stroke-linecap="round" stroke-linejoin="round" opacity="1" fill="none"></path><path d="M484.37 563.7C478.43 562.94 466.48 568.2 466.48 568.2" stroke="#000000" stroke-width="4" stroke-linecap="round" stroke-linejoin="round" opacity="1" fill="none"></path><path d="M487.34 574.81C483.52 574.05 475.38 575.57 470.12 579.3" stroke="#000000" stroke-width="4" stroke-linecap="round" stroke-linejoin="round" opacity="1" fill="none"></path><path d="M473.68 592.19L477.16 586.51" stroke="#000000" stroke-width="4" stroke-linecap="round" stroke-linejoin="round" opacity="1" fill="none"></path><path d="M292.84 549.29C289.02 547.85 286.14 546.41 286.14 546.41" stroke="#000000" stroke-width="4" stroke-linecap="round" stroke-linejoin="round" opacity="1" fill="none"></path><path d="M144.63 625.85C141.83 613.22 148.36 601.01 162.18 593.21 155.23 574.47 156.75 556.41 166.59 542.17 176.76 527.5 194.15 519.02 214.41 519.02 220.68 519.02 227.04 519.87 233.49 521.48 233.23 520.04 232.98 518.68 232.72 517.49 232.38 515.8 232.13 514.36 231.96 513.34L231.79 512.24C229.5 500.11 225.26 477.48 238.32 465.78 246.71 458.31 258.75 454.07 271.39 454.07 278.08 454.07 284.78 455.26 290.72 457.64 299.03 460.86 304.62 466.11 308.86 474.34 308.86 474.34 303.6 481.38 293.94 481.38 291.82 481.38 289.53 481.04 289.86 481.21 292.07 489.01 288.82 501.86 284.84 507.43L283.61 509 283.19 509.57C282.4 509.02 273.08 502.32 264.6 502.32 259.69 502.32 256.21 504.61 254.26 509.19 248.24 523.34 271.81 535.64 272.06 535.81H272.15V535.89C273.67 541.83 274.78 568.62 260.96 586.43 252.9 596.77 241.37 602.03 226.62 602.03 218.39 602.03 209.15 600.33 199.06 597.11 198.13 598.89 188.38 618.39 178.54 650.78 178.54 650.78 150.23 651.63 144.63 625.85Z" fill="#010005" opacity="1" stroke-width="4" stroke="#000000"></path><path d="M340.83 833.32L417.56 832.64" stroke="#000000" stroke-width="4" stroke-linecap="round" stroke-linejoin="round" opacity="1" fill="none"></path><path d="M270.71 546.66C275.39 546.66 279.19 542.86 279.19 538.18 279.19 533.5 275.39 529.7 270.71 529.7 266.03 529.7 262.23 533.5 262.23 538.18 262.23 542.86 266.03 546.66 270.71 546.66Z" fill="#ffffff" opacity="1" stroke-width="4" stroke="#000000"></path><path d="M233.49 521.48C237.13 522.75 240.95 524.53 244.42 526.31" stroke="#000000" stroke-width="4" stroke-linecap="round" stroke-linejoin="round" opacity="1" fill="none"></path><path d="M162.18 593.21C164.05 597.62 166.42 601.94 168.96 606.01" stroke="#000000" stroke-width="4" stroke-linecap="round" stroke-linejoin="round" opacity="1" fill="none"></path><path d="M198.89 597.11C191.01 594.99 186.77 591.6 186.77 591.6" stroke="#000000" stroke-width="4" stroke-linecap="round" stroke-linejoin="round" opacity="1" fill="none"></path><path d="M403.57 591.77L445.28 624.24" stroke="#000000" stroke-width="4" stroke-linecap="round" stroke-linejoin="round" opacity="1" fill="none"></path><path d="M497.34 1004C493.1 1001.2 488.61 998.91 483.86 997.21L483.52 997.04 549.57 964.06 549.65 964.15C552.71 967.03 555.16 970.34 556.94 974.15L557.03 974.32 497.34 1004Z" fill="#525252" opacity="1" stroke-width="4" stroke="#000000"></path><path d="M349.9 1029.09C347.35 1024.94 344.47 1020.95 341.42 1017.31L341.25 1017.05H419.34L419.42 1017.14C420.78 1020.95 421.2 1024.94 421.2 1028.92V1029.09H349.9Z" fill="#525252" opacity="1" stroke-width="4" stroke="#000000"></path></g><g><path d="M286.39 855.47L323.07 1026.93" stroke="#000000" stroke-width="4" stroke-linecap="round" stroke-linejoin="round" opacity="1" fill="none"></path><path d="M215.11 855.47L178.44 1026.93" stroke="#000000" stroke-width="4" stroke-linecap="round" stroke-linejoin="round" opacity="1" fill="none"></path><path d="M201.14 921.35H300.27" stroke="#000000" stroke-width="4" stroke-linecap="round" stroke-linejoin="round" opacity="1" fill="none"></path><path d="M195.29 833.51H306.32C314.54 833.51 321.19 839.17 321.19 846.18 321.19 853.19 314.54 858.85 306.32 858.85H195.29C187.06 858.85 180.42 853.19 180.42 846.18 180.42 839.25 187.06 833.51 195.29 833.51Z" fill="#ff3269" opacity="1" stroke-width="4" stroke="#000000"></path><path d="M217.49 847.95C205 845.92 193.21 843.31 182.3 840.1 181.11 841.95 180.42 843.98 180.42 846.26 180.42 853.27 187.06 858.93 195.29 858.93H306.32C314.54 858.93 321.19 853.27 321.19 846.26 321.19 845.16 320.99 844.07 320.69 843.05 297.29 852.17 259.03 854.62 217.49 847.95Z" fill="#ff326900" opacity="0" stroke-width="4" stroke="#ffffff00"></path></g></svg>